# xmcd
#
# Track frame offsets:
#	150
#	11962
#	27690
#	47164
#	66393
#	81543
#	98186
#	112111
#	123621
#	142036
#	158248
#	175550
#	190150
#	210509
#	225645
#	240208
#	254109
#	270962
#	287200
#	300499
#	314907
#	330906
#	341191
#
# Disc length: 4676 seconds
#
# Revision: 1
# Processed by: cddbd v1.4PL0 Copyright (c) Steve Scherf et al.
# Submitted via: EasyCDDAExtractor 6.2.0.3
#
DISCID=5f124217
DTITLE=Gino and Geno - Sucessos De Ouro
DYEAR=2003
DGENRE=Sertanejo
TTITLE0=A Viola Chorou
TTITLE1='Agora É Só Alegria
TTITLE2=Apaixonado Por Você
TTITLE3=Coração Cigano
TTITLE4=Deixe Seu Recado
TTITLE5=Ela Chorou De Amor
TTITLE6=Indo Pra Goiania
TTITLE7=Jeito Caipira
TTITLE8=Lorota
TTITLE9=Mete O Dedo
TTITLE10=Mulher Que Não Dá Voa
TTITLE11=Nóis Não Vive é Sem Dinheiro
TTITLE12=Nossa Senhora Aparecida
TTITLE13=O Gato Comeu
TTITLE14=O Que É Que Ela Tem
TTITLE15=O Que Eu Tô Fazendo Aqui
TTITLE16=O Que Tem Baiana
TTITLE17=Pinga Na Garganta
TTITLE18=Sou Feio Mas Tou Na Moda
TTITLE19=Tche, Tche, Tche, Tcha,Tcha, Tcha
TTITLE20=Tição Acesso
TTITLE21=Tô Nos Braços Da Guria
TTITLE22=Trem Tá Feio
EXTD=
EXTT0=
EXTT1=
EXTT2=
EXTT3=
EXTT4=
EXTT5=
EXTT6=
EXTT7=
EXTT8=
EXTT9=
EXTT10=
EXTT11=
EXTT12=
EXTT13=
EXTT14=
EXTT15=
EXTT16=
EXTT17=
EXTT18=
EXTT19=
EXTT20=
EXTT21=
EXTT22=
PLAYORDER=
